<svg xmlns="http://www.w3.org/2000/svg" width="520" height="185" viewBox="0 0 520 185" id="hi-there">
  <path class="hello" fill="none" stroke="#fff" stroke-width="4" stroke-linecap="round" stroke-linejoin="round"
    d="M 0 149 c 38 -16.67 73.74 -45.72 97.33 -66 c 21.33 -18.33 32.67 -35.67 37.33 -52.67 C 139.12 14.12 136 3 124 3 c -11 0 -21 10.33 -24.94 27.68 c -4.52 19.89 -22.06 107.82 -29.39 149 c 15.67 -72.33 36.33 -81.33 53.67 -81.33 c 22.33 0 24.67 18.67 19.42 39 c -5.43 21.07 -7.42 44.32 17.91 44.32 c 18 0 35.53 -8.17 52.67 -20 c 14 -9.67 23 -24 23 -40 c 0 -13.42 -8 -23.33 -20.67 -23.33 s -24.33 12 -24.33 33.33 c 0 27 16.33 48 44 48 c 25.67 0 47.67 -19.67 62 -44.67 c 13.61 -23.74 30.67 -64.67 33.33 -92.67 s -5.33 -36 -18.67 -36 s -24.67 17.33 -28.67 43.33 S 278 113 283.33 141 s 28 37.67 46 37.67 s 38.17 -15.67 52 -37 c 16.54 -25.51 35.87 -67.45 38.67 -102 c 2 -24.67 -8.67 -33.33 -20 -33.33 c -14.67 0 -23.33 13.33 -28 38 c -4.5 23.81 -8 64 -2 94 c 4.64 23.21 25.33 40.33 44.67 40.33 s 32.67 -19 36.67 -42.33 C 464 98.33 453.33 116 451 138 c -2.81 26.54 10.33 41.67 29.67 41.67 c 22 0 34.54 -20.78 36.67 -40.67 c 2 -18.67 -7.39 -39.13 -28 -40.67" />
  <defs>
    <style>
      .hello {
        transform-origin: 50% 50%;
        stroke-dasharray: 2100px;
        stroke-dashoffset: 2100px;
        animation: stroke 3s cubic-bezier(0.65, 0, 0.45, 1) 0.8s forwards;
      }

      @keyframes stroke {
        100% {
          stroke-dashoffset: 0;
        }
      }
    </style>
  </defs>
</svg>